<?xml version="1.0" encoding="UTF-8" standalone="no"?>
<!-- Created with Inkscape (http://www.inkscape.org/) -->

<svg
   xmlns:dc="http://purl.org/dc/elements/1.1/"
   xmlns:cc="http://creativecommons.org/ns#"
   xmlns:rdf="http://www.w3.org/1999/02/22-rdf-syntax-ns#"
   xmlns:svg="http://www.w3.org/2000/svg"
   xmlns="http://www.w3.org/2000/svg"
   xmlns:xlink="http://www.w3.org/1999/xlink"
   xmlns:sodipodi="http://sodipodi.sourceforge.net/DTD/sodipodi-0.dtd"
   xmlns:inkscape="http://www.inkscape.org/namespaces/inkscape"
   width="45.905174"
   height="3.753"
   id="svg2187"
   sodipodi:version="0.32"
   inkscape:version="0.92.4 (5da689c313, 2019-01-14)"
   version="1.0"
   sodipodi:docname="weblogo.svg"
   inkscape:output_extension="org.inkscape.output.svg.inkscape"
   inkscape:export-filename="D:\Projects\mono\RocketFarmRacing\art\logo.png"
   inkscape:export-xdpi="1973.76"
   inkscape:export-ydpi="1973.76">
  <defs
     id="defs2189" />
  <sodipodi:namedview
     inkscape:document-units="in"
     pagecolor="#ffffff"
     bordercolor="#666666"
     borderopacity="1.0"
     inkscape:pageopacity="0.0"
     inkscape:pageshadow="2"
     inkscape:zoom="9.2800001"
     inkscape:cx="36.261589"
     inkscape:cy="3.5075022"
     inkscape:current-layer="layer1"
     id="namedview2191"
     width="50px"
     height="50px"
     inkscape:window-width="1920"
     inkscape:window-height="1001"
     inkscape:window-x="-9"
     inkscape:window-y="-9"
     showgrid="false"
     inkscape:window-maximized="1"
     showguides="true"
     inkscape:guide-bbox="true">
    <sodipodi:guide
       position="47.952586,10.34483"
       orientation="1,0"
       id="guide840"
       inkscape:locked="false" />
    <sodipodi:guide
       position="2.0474138,-1.508619"
       orientation="1,0"
       id="guide842"
       inkscape:locked="false" />
    <sodipodi:guide
       position="25.002092,43.422683"
       orientation="1,0"
       id="guide844"
       inkscape:locked="false" />
  </sodipodi:namedview>
  <metadata
     id="metadata2193">
    <rdf:RDF>
      <cc:Work
         rdf:about="">
        <dc:format>image/svg+xml</dc:format>
        <dc:type
           rdf:resource="http://purl.org/dc/dcmitype/StillImage" />
        <dc:title></dc:title>
      </cc:Work>
    </rdf:RDF>
  </metadata>
  <g
     inkscape:label="Layer 1"
     inkscape:groupmode="layer"
     id="layer1"
     transform="translate(0,-46.247002)">
    <rect
       style="fill:#ff8200;fill-opacity:1;stroke:none;stroke-width:2.13499999;stroke-linecap:round;stroke-miterlimit:4;stroke-dasharray:none"
       id="rect838"
       width="45.905174"
       height="3.753"
       x="0"
       y="46.247002" />
    <g
       transform="matrix(0.12956972,0,0,0.12901743,-5.8576226,67.484529)"
       id="g4912"
       style="fill:#ffffff;stroke-width:8.50778961">
      <path
         id="path6143"
         sodipodi:nodetypes="ccsccccc"
         style="fill:#ffffff;stroke-width:8.50778961"
         d="m 50.769366,-150.1029 c -0.03087,0.7965 0.448355,1.4175 1.02925,1.9005 0.6398,0.4755 1.5355,0.90185 2.64295,1.25005 2.2149,0.6963 5.2585,1.11965 8.606,1.11965 h 0.221 v -0.10415 c -6.7265,0 -11.666,-1.92405 -11.666,-4.16605 h -0.8331 z"
         inkscape:connector-curvature="0" />
      <use
         id="use9097"
         style="fill:#ffffff;stroke-width:8.50778961"
         xlink:href="#path6143"
         transform="matrix(1,0,0,-1,0,-299.9978)"
         height="100"
         width="100"
         y="0"
         x="0" />
      <use
         id="use9099"
         style="fill:#ffffff;stroke-width:8.50778961"
         xlink:href="#path6143"
         transform="matrix(-1,0,0,1,126.53591,0)"
         height="100"
         width="100"
         y="0"
         x="0" />
      <use
         id="use9101"
         style="fill:#ffffff;stroke-width:8.50778961"
         xlink:href="#path6143"
         transform="rotate(180,63.267955,-149.9989)"
         height="100"
         width="100"
         y="0"
         x="0" />
      <circle
         r="2.4998"
         cy="-149.99789"
         cx="63.268951"
         style="fill:#ffffff;stroke-width:8.50778961"
         id="path9131" />
      <path
         id="path2228"
         sodipodi:nodetypes="ccsccccc"
         style="fill:#ffffff;stroke-width:8.50778961"
         d="m 54.356587,-141.23476 c 0.541383,0.58504 1.319365,0.68529 2.071656,0.61607 0.78864,-0.11618 1.723475,-0.44806 2.752779,-0.98494 2.058539,-1.07381 4.510054,-2.92662 6.877105,-5.29367 l 0.156271,-0.15627 -0.07365,-0.0736 c -4.756375,4.75638 -9.60966,6.88863 -11.195001,5.30329 l -0.589093,0.5891 z"
         inkscape:connector-curvature="0" />
      <use
         id="use2230"
         style="fill:#ffffff;stroke-width:8.50778961"
         xlink:href="#path6143"
         transform="matrix(0.70711,-0.70711,-0.70711,-0.70711,-87.53512,-211.32742)"
         height="100"
         width="100"
         y="0"
         x="0" />
      <use
         id="use2232"
         style="fill:#ffffff;stroke-width:8.50778961"
         xlink:href="#path6143"
         transform="matrix(-0.70711,0.70711,0.70711,0.70711,214.07113,-88.670779)"
         height="100"
         width="100"
         y="0"
         x="0" />
      <use
         id="use2234"
         style="fill:#ffffff;stroke-width:8.50778961"
         xlink:href="#path6143"
         transform="matrix(-0.70711,0.70711,-0.70711,-0.70711,1.9396837,-300.80222)"
         height="100"
         width="100"
         y="0"
         x="0" />
      <path
         id="path2238"
         sodipodi:nodetypes="ccsccccc"
         style="fill:#ffffff;stroke-width:8.50778961"
         d="m 54.503666,-158.91026 c -0.585044,0.54138 -0.685292,1.31936 -0.616069,2.07165 0.116178,0.78864 0.44806,1.72348 0.984933,2.75278 1.073818,2.05854 2.926622,4.51006 5.293673,6.87711 l 0.156272,0.15627 0.07365,-0.0737 c -4.756376,-4.75637 -6.88863,-9.60966 -5.30329,-11.195 l -0.589093,-0.58909 z"
         inkscape:connector-curvature="0" />
      <use
         id="use2240"
         style="fill:#ffffff;stroke-width:8.50778961"
         xlink:href="#path6143"
         transform="matrix(0.70711,0.70711,0.70711,-0.70711,124.59632,-300.80197)"
         height="100"
         width="100"
         y="0"
         x="0" />
      <use
         id="use2242"
         style="fill:#ffffff;stroke-width:8.50778961"
         xlink:href="#path6143"
         transform="matrix(-0.70711,-0.70711,-0.70711,0.70711,1.9396837,0.80427469)"
         height="100"
         width="100"
         y="0"
         x="0" />
      <use
         id="use2244"
         style="fill:#ffffff;stroke-width:8.50778961"
         xlink:href="#path6143"
         transform="matrix(-0.70711,-0.70711,0.70711,-0.70711,214.07113,-211.32717)"
         height="100"
         width="100"
         y="0"
         x="0" />
      <path
         id="path2248"
         sodipodi:nodetypes="ccsccccc"
         style="fill:#ffffff;stroke-width:8.50778961"
         d="m 63.371953,-162.49749 c -0.7965,-0.0309 -1.4175,0.44836 -1.9005,1.02926 -0.4755,0.63979 -0.90185,1.53549 -1.25005,2.64294 -0.6963,2.2149 -1.11965,5.2585 -1.11965,8.606 v 0.221 h 0.10415 c 0,-6.72649 1.92405,-11.666 4.16605,-11.666 v -0.8331 z"
         inkscape:connector-curvature="0" />
      <use
         id="use2250"
         style="fill:#ffffff;stroke-width:8.50778961"
         xlink:href="#path6143"
         transform="matrix(0,1,1,0,213.26685,-213.26685)"
         height="100"
         width="100"
         y="0"
         x="0" />
      <use
         id="use2252"
         style="fill:#ffffff;stroke-width:8.50778961"
         xlink:href="#path6143"
         transform="matrix(0,-1,-1,0,-86.730945,-86.730945)"
         height="100"
         width="100"
         y="0"
         x="0" />
      <use
         id="use2254"
         style="fill:#ffffff;stroke-width:8.50778961"
         xlink:href="#path6143"
         transform="rotate(-90,63.267952,-149.9989)"
         height="100"
         width="100"
         y="0"
         x="0" />
    </g>
    <ellipse
       style="fill:#ffffff;fill-opacity:1;stroke:none;stroke-width:2.13499999;stroke-linecap:round;stroke-miterlimit:4;stroke-dasharray:none"
       id="path846"
       cx="3.217473"
       cy="46.946499"
       rx="0.15597065"
       ry="0.15052527" />
    <ellipse
       style="fill:#ffffff;fill-opacity:1;stroke:none;stroke-width:2.13499999;stroke-linecap:round;stroke-miterlimit:4;stroke-dasharray:none"
       id="path846-7"
       cx="3.5131197"
       cy="48.866959"
       rx="0.15597065"
       ry="0.15052527" />
    <ellipse
       style="fill:#ffffff;fill-opacity:1;stroke:none;stroke-width:2.13499999;stroke-linecap:round;stroke-miterlimit:4;stroke-dasharray:none"
       id="path846-6"
       cx="1.0163221"
       cy="47.83469"
       rx="0.15597065"
       ry="0.15052527" />
    <text
       xml:space="preserve"
       style="font-style:normal;font-variant:normal;font-weight:normal;font-stretch:normal;font-size:2.81289053px;line-height:0;font-family:'Franklin Gothic Medium';-inkscape-font-specification:'Franklin Gothic Medium, ';letter-spacing:0px;word-spacing:0px;fill:#ffffd5;fill-opacity:1;stroke:none;stroke-width:0.99999994"
       x="4.4685044"
       y="48.691784"
       id="text891"
       transform="scale(0.99504784,1.0049768)"><tspan
         sodipodi:role="line"
         id="tspan889"
         x="4.4685044"
         y="48.691784"
         style="fill:#ffffd5;fill-opacity:1;stroke-width:0.99999994">Ambient Energy Studios</tspan></text>
  </g>
</svg>
